PathFileType	4	(X/Y/Z)	C:\Users\°ÂÌØÂü\Desktop\20210112\bx_y_5_502-Unnamed.trc
DataRate	CameraRate	NumFrames	NumMarkers	Units	OrigDataRate	OrigDataStartFrame	OrigNumFrames
50.00	50.00	       7	0	mm	50.00	336	       447
Frame#	Time	
		

336	6.700	-627.22888	281.33127	1524.41968	-747.05621	-57.47226	707.11017	-757.22137	271.79376	749.61670	-738.26776	142.55775	573.58234	-715.66089	277.61157	881.12640	-657.01044	211.83488	827.57330	-590.41876	-74.27299	1524.34607	-778.89362	249.15402	636.30322	-676.73193	176.28111	160.75552	-738.86859	73.78555	573.81512	-776.02100	245.66527	574.74152	-810.31555	255.88075	498.08075	-718.57703	204.30713	537.11194	-575.31451	101.62759	1394.89661	-714.30127	156.67148	219.81442	-774.17657	226.22769	202.78348	-882.58093	296.11243	144.62024	-676.61591	51.91164	162.50165	-659.00775	-12.07373	808.48706	-597.56915	226.85216	174.46294	-667.54315	301.02628	158.54752	-629.82544	308.55762	160.64407	-563.35132	262.47949	165.81935	-528.02155	303.99188	146.05132	-564.67871	106.21868	1827.05493				-517.87433	-73.06673	142.79199	-563.76953	-41.52919	163.69331	-604.67230	15.67661	169.98450	-870.77350	90.59659	1051.27051	-668.77155	-12.12249	1052.18201	-795.90582	54.10963	173.44456	-798.30127	175.07578	181.85107	-805.80865	-38.32471	483.18948	-667.32324	-70.26867	159.43159	-772.55890	-9.01378	203.93224	-875.97748	-78.88188	141.21204	-756.81976	-33.00481	614.55029	-625.61627	-80.69939	158.10289				-720.12109	72.89783	219.95450	-766.86841	-30.13042	565.91205							-710.89221	11.32512	524.91022	
337	6.720	-634.18042	281.58701	1527.59912	-745.13000	-56.32153	707.18188	-753.76630	271.80908	749.57745	-736.62805	141.86624	573.90649	-712.03455	277.01926	880.70764	-653.18494	211.39091	828.25983	-596.44965	-74.38557	1528.74329	-775.45978	249.15628	636.78070	-676.71942	176.27853	160.52724	-736.83453	73.58451	573.56073	-774.26691	244.95700	573.88831	-808.43109	255.71393	498.86792	-717.04669	204.16095	536.99109	-577.74426	102.06080	1398.56970	-713.83105	156.75752	219.84274	-774.02594	226.24352	202.84666	-882.56781	296.02765	144.56569	-676.35791	52.05614	162.58975	-656.30615	-12.50865	808.39044	-597.39471	226.88049	174.65254	-667.54315	301.02628	158.54752	-629.90039	308.59280	160.78104	-563.16193	262.55133	165.91850	-528.07068	303.81531	146.19221	-574.42114	106.70325	1831.01135				-517.99774	-73.17961	142.63948	-563.67639	-41.71482	163.79462	-604.72949	15.72235	169.89259	-867.61914	91.15114	1051.23560				-795.86261	54.15491	173.59787	-798.08533	174.23933	182.63846	-804.21722	-38.01505	483.69446	-667.41132	-70.97533	159.72159	-772.46735	-9.01834	204.05659	-875.64880	-79.04969	141.18465	-755.21417	-33.14441	614.64575	-625.58801	-80.78365	158.11099				-719.32880	73.13837	220.05957	-765.35712	-30.39252	566.20801							-709.39777	10.89544	525.03467	
338	6.740	-640.64392	281.56348	1530.89563	-743.76361	-57.11555	708.12122	-749.73181	271.30292	749.52197	-734.54822	142.28542	574.14014	-708.22980	276.19461	880.49725	-649.87726	210.50980	828.19928	-602.50598	-74.59944	1532.56348	-772.47186	248.80820	636.75220	-676.18463	176.58966	159.90002	-734.64532	73.47225	574.11011	-771.60144	245.49995	574.62592	-806.90411	255.74257	499.54669	-714.65448	203.81650	537.04205	-581.04254	101.98623	1402.74255	-713.50543	156.50407	219.76155	-774.02887	226.16277	202.77094	-882.68707	296.12277	144.54646	-676.30219	51.95768	162.62561	-653.77808	-13.03450	808.32190	-597.35687	226.91672	174.38533	-667.54315	301.02628	158.54752	-629.70844	308.39127	160.90460	-563.18604	262.57965	165.85712	-528.00574	303.73566	146.18669	-583.85425	107.05704	1834.71887				-517.98785	-72.92955	142.54131	-563.68390	-41.50319	163.69115	-604.52911	15.54886	170.18340	-864.63806	91.47704	1050.74084				-795.81866	54.23962	173.41121	-797.71582	174.31007	182.74936	-802.55444	-37.46976	483.41718	-667.55670	-70.90785	159.62178	-772.41693	-8.92186	204.24878	-875.64880	-79.04969	141.18465	-753.61322	-33.26888	614.74622	-625.69855	-80.65509	157.98383				-719.27509	73.33120	219.85303	-763.64874	-30.16321	566.12543							-707.55164	10.63255	525.07507	
339	6.760	-646.88873	281.36066	1533.17505	-741.69293	-56.79507	707.98743	-746.39557	271.23535	749.76337	-732.57727	141.94836	574.15411	-704.32385	276.23801	880.73297	-646.43640	209.75336	828.03339	-608.01373	-74.47037	1536.24084	-769.79456	249.26459	637.05280	-676.51776	176.27783	160.19217	-733.00903	73.25918	574.66614	-769.19159	245.70453	575.08606	-804.54822	255.75931	498.94025	-712.45782	203.45102	536.51599	-584.66223	102.21790	1406.42712	-713.29803	156.56665	219.56557	-773.88959	226.17618	203.08012	-882.66003	296.11053	144.51537	-676.43439	51.88353	162.48557	-650.94916	-13.54181	808.27722	-597.06158	227.05524	174.33890	-667.46997	300.93478	158.39705	-629.70844	308.39127	160.90460	-563.07178	262.49097	165.77769	-527.93073	303.70456	146.14040	-592.88422	107.43913	1838.21912				-518.03052	-72.88007	142.50052	-563.77246	-41.66690	163.84355	-604.53821	15.69427	170.02818	-861.38995	91.52512	1050.33752				-795.89215	54.27329	173.38258	-797.80219	174.86667	182.24080	-802.17902	-39.06156	484.18335	-667.53192	-70.82491	159.72655	-772.38135	-8.87822	204.36333	-875.80469	-78.47731	140.63593	-751.39667	-32.98206	615.07526	-625.67377	-80.75209	158.05040				-719.27509	73.33120	219.85303	-761.47430	-30.33904	566.60809							-706.61475	10.27656	524.72992	
340	6.780	-652.62164	281.76260	1535.99243	-739.00262	-56.53221	708.00531	-742.96393	270.82077	750.27319	-729.92896	141.80338	574.52734	-700.77625	275.76962	880.73553	-642.59662	209.87743	828.41248	-613.76459	-74.71481	1539.82300	-767.21069	248.81602	636.95654	-676.18945	176.12384	159.89160	-731.23328	73.24469	574.95776	-766.51727	245.25986	575.35199	-802.46185	256.03473	499.89429	-710.38770	203.37698	536.56232	-587.63434	102.08131	1410.19006	-713.32770	156.46123	219.44675	-773.64362	226.12926	203.05582	-882.61060	296.06824	144.54037	-676.55847	51.96371	162.62775	-648.23859	-14.14940	808.53833	-597.02179	226.64023	174.41783	-667.38544	300.50827	158.80428	-629.69067	308.31598	160.98018	-562.69666	262.66925	165.75330	-527.87225	303.68262	146.20033	-601.50513	107.91202	1840.76501	-649.98663	211.45193	1069.06140	-518.04230	-72.81749	142.40614	-563.73083	-41.56292	163.92134	-604.84204	15.44484	170.33231	-858.01086	91.26396	1049.70752				-795.84674	54.13071	173.35202	-797.71960	174.80028	182.25354	-800.21857	-39.14408	484.85645	-667.41284	-70.74745	159.50105	-772.41064	-9.04724	204.45889	-875.45526	-78.57915	140.36075	-749.53040	-33.61072	615.47717	-625.53851	-80.93290	158.28154				-718.77155	73.18542	219.68034	-759.69183	-30.67294	567.01581							-704.35553	10.52537	524.70508	
341	6.800	-658.38879	281.87872	1538.03564	-736.77844	-56.68046	708.21161	-739.56726	270.77951	749.79700	-728.16406	141.89073	574.37329	-697.63043	276.18826	880.61346	-639.24463	209.94429	828.40790	-619.46008	-75.15463	1543.85815	-764.69049	249.14267	637.78278	-676.11591	176.10925	159.71149	-728.98541	73.16694	575.44415	-764.04596	245.04350	575.40741	-800.67859	255.91435	500.13837	-708.84033	203.56595	536.32654	-590.47137	101.92094	1413.68896				-773.56989	226.14238	203.20151	-882.82404	296.07440	144.46742	-676.55847	51.96371	162.62775	-644.96051	-14.06866	808.53772	-596.70258	226.46611	174.43268	-667.27264	300.34320	159.06816	-629.69067	308.31598	160.98018	-562.63293	262.61035	165.77232	-527.49158	303.69733	146.40738	-609.73413	107.95370	1843.64136	-648.01935	212.78072	1069.16309	-518.02948	-73.00804	142.29494	-563.73083	-41.56292	163.92134	-604.81757	15.46077	170.27673	-855.45215	90.89990	1049.34570	-713.12115	155.88562	219.01379	-795.71741	54.16352	173.44514	-797.60980	174.67354	182.23300	-798.16901	-39.29582	484.91531	-667.55066	-70.62663	159.49513	-772.33868	-9.13795	204.62231	-875.45526	-78.57915	140.36075	-746.02277	-34.90703	616.51398	-625.55933	-80.72180	158.32368				-718.78479	73.25494	219.62595	-757.60596	-31.02997	567.40118							-702.50153	10.38010	525.09180	
342	6.820	-663.77930	281.93542	1540.16284	-733.39429	-56.21307	708.36615	-737.19806	270.77338	750.17096	-726.14685	141.89755	574.50214	-694.74249	275.57968	880.49805	-636.35425	209.75377	828.36798	-625.33447	-75.18627	1546.55432	-762.04724	248.57240	637.27899	-675.66669	175.78058	159.88759	-727.16931	73.14817	575.51501	-762.01563	245.22122	575.12903	-799.11041	255.84343	500.15466	-706.63086	203.09286	536.53510	-593.52563	101.43271	1416.55481				-773.37738	226.04175	203.31136	-882.66003	296.13315	144.60139	-676.55847	51.96371	162.62775	-641.86963	-13.76695	808.96198	-596.62585	226.38579	174.70943	-667.10144	300.05038	159.00819	-629.69067	308.31598	160.98018	-562.53046	262.61514	165.75218	-528.16980	304.08307	146.45369	-617.86053	107.85473	1846.05664	-645.10663	212.92941	1069.70117	-517.93347	-73.04156	142.67648	-563.66168	-41.39557	163.94258	-604.56311	15.63217	170.30974	-852.40802	90.71856	1048.68201	-713.07947	156.06760	218.51164	-795.50531	54.10939	173.44627	-797.40143	174.57979	182.29678	-796.60211	-39.09280	485.15271	-667.52148	-70.62511	159.49016	-771.97058	-9.14517	204.58632	-875.57593	-78.62104	140.66214	-743.57904	-34.70748	616.32367	-625.44257	-80.54677	158.17610				-718.79590	73.35095	219.48579	-755.33392	-31.05220	566.99487							-701.29449	10.64787	524.47919	
